<mxfile host="app.diagrams.net" modified="2023-07-03T01:56:12.624Z" agent="Mozilla/5.0 (Macintosh; Intel Mac OS X 10_15_7) AppleWebKit/537.36 (KHTML, like Gecko) Chrome/114.0.0.0 Safari/537.36" etag="sujOxoXlnSfDGrCEn47m" version="21.5.2" type="github">
  <diagram id="C5RBs43oDa-KdzZeNtuy" name="Page-1">
    <mxGraphModel dx="1420" dy="1927" grid="1" gridSize="10" guides="1" tooltips="1" connect="1" arrows="1" fold="1" page="1" pageScale="1" pageWidth="827" pageHeight="1169" math="0" shadow="0">
      <root>
        <mxCell id="WIyWlLk6GJQsqaUBKTNV-0" />
        <mxCell id="WIyWlLk6GJQsqaUBKTNV-1" parent="WIyWlLk6GJQsqaUBKTNV-0" />
        <mxCell id="NGdV3juf8NLYTXSaNOSW-159" value="" style="rounded=1;whiteSpace=wrap;html=1;labelBackgroundColor=none;" vertex="1" parent="WIyWlLk6GJQsqaUBKTNV-1">
          <mxGeometry x="610" y="-28" width="980" height="240" as="geometry" />
        </mxCell>
        <mxCell id="NGdV3juf8NLYTXSaNOSW-0" value="管理者ログイン" style="swimlane;fontStyle=0;childLayout=stackLayout;horizontal=1;startSize=26;fillColor=none;horizontalStack=0;resizeParent=1;resizeParentMax=0;resizeLast=0;collapsible=1;marginBottom=0;html=1;rounded=1;labelBackgroundColor=none;" vertex="1" parent="WIyWlLk6GJQsqaUBKTNV-1">
          <mxGeometry x="230" y="40" width="290" height="80" as="geometry" />
        </mxCell>
        <mxCell id="NGdV3juf8NLYTXSaNOSW-1" value="・ログイン情報入力蘭" style="text;strokeColor=none;fillColor=none;align=left;verticalAlign=top;spacingLeft=4;spacingRight=4;overflow=hidden;rotatable=0;points=[[0,0.5],[1,0.5]];portConstraint=eastwest;whiteSpace=wrap;html=1;rounded=1;labelBackgroundColor=none;" vertex="1" parent="NGdV3juf8NLYTXSaNOSW-0">
          <mxGeometry y="26" width="290" height="26" as="geometry" />
        </mxCell>
        <mxCell id="NGdV3juf8NLYTXSaNOSW-3" value="・必須項目を入力し、ログインボタンをクリック" style="text;strokeColor=none;fillColor=none;align=left;verticalAlign=top;spacingLeft=4;spacingRight=4;overflow=hidden;rotatable=0;points=[[0,0.5],[1,0.5]];portConstraint=eastwest;whiteSpace=wrap;html=1;rounded=1;labelBackgroundColor=none;" vertex="1" parent="NGdV3juf8NLYTXSaNOSW-0">
          <mxGeometry y="52" width="290" height="28" as="geometry" />
        </mxCell>
        <mxCell id="NGdV3juf8NLYTXSaNOSW-4" value="管理者側" style="shape=ext;double=1;rounded=1;whiteSpace=wrap;html=1;labelBackgroundColor=none;" vertex="1" parent="WIyWlLk6GJQsqaUBKTNV-1">
          <mxGeometry x="70" y="-120" width="130" height="50" as="geometry" />
        </mxCell>
        <mxCell id="NGdV3juf8NLYTXSaNOSW-146" value="List" style="swimlane;fontStyle=0;childLayout=stackLayout;horizontal=1;startSize=26;fillColor=none;horizontalStack=0;resizeParent=1;resizeParentMax=0;resizeLast=0;collapsible=1;marginBottom=0;html=1;rounded=1;labelBackgroundColor=none;" vertex="1" parent="WIyWlLk6GJQsqaUBKTNV-1">
          <mxGeometry x="1230" y="40" width="140" height="104" as="geometry" />
        </mxCell>
        <mxCell id="NGdV3juf8NLYTXSaNOSW-147" value="Item 1" style="text;strokeColor=none;fillColor=none;align=left;verticalAlign=top;spacingLeft=4;spacingRight=4;overflow=hidden;rotatable=0;points=[[0,0.5],[1,0.5]];portConstraint=eastwest;whiteSpace=wrap;html=1;rounded=1;labelBackgroundColor=none;" vertex="1" parent="NGdV3juf8NLYTXSaNOSW-146">
          <mxGeometry y="26" width="140" height="26" as="geometry" />
        </mxCell>
        <mxCell id="NGdV3juf8NLYTXSaNOSW-148" value="Item 2" style="text;strokeColor=none;fillColor=none;align=left;verticalAlign=top;spacingLeft=4;spacingRight=4;overflow=hidden;rotatable=0;points=[[0,0.5],[1,0.5]];portConstraint=eastwest;whiteSpace=wrap;html=1;rounded=1;labelBackgroundColor=none;" vertex="1" parent="NGdV3juf8NLYTXSaNOSW-146">
          <mxGeometry y="52" width="140" height="26" as="geometry" />
        </mxCell>
        <mxCell id="NGdV3juf8NLYTXSaNOSW-149" value="Item 3" style="text;strokeColor=none;fillColor=none;align=left;verticalAlign=top;spacingLeft=4;spacingRight=4;overflow=hidden;rotatable=0;points=[[0,0.5],[1,0.5]];portConstraint=eastwest;whiteSpace=wrap;html=1;rounded=1;labelBackgroundColor=none;" vertex="1" parent="NGdV3juf8NLYTXSaNOSW-146">
          <mxGeometry y="78" width="140" height="26" as="geometry" />
        </mxCell>
        <mxCell id="NGdV3juf8NLYTXSaNOSW-150" value="ヘッダー" style="swimlane;fontStyle=0;childLayout=stackLayout;horizontal=1;startSize=26;fillColor=none;horizontalStack=0;resizeParent=1;resizeParentMax=0;resizeLast=0;collapsible=1;marginBottom=0;html=1;rounded=1;labelBackgroundColor=none;" vertex="1" parent="WIyWlLk6GJQsqaUBKTNV-1">
          <mxGeometry x="30" y="350" width="220" height="96" as="geometry" />
        </mxCell>
        <mxCell id="NGdV3juf8NLYTXSaNOSW-151" value="・ログアウトリンクをクリック" style="text;strokeColor=none;fillColor=none;align=left;verticalAlign=top;spacingLeft=4;spacingRight=4;overflow=hidden;rotatable=0;points=[[0,0.5],[1,0.5]];portConstraint=eastwest;whiteSpace=wrap;html=1;rounded=1;labelBackgroundColor=none;" vertex="1" parent="NGdV3juf8NLYTXSaNOSW-150">
          <mxGeometry y="26" width="220" height="26" as="geometry" />
        </mxCell>
        <mxCell id="NGdV3juf8NLYTXSaNOSW-153" value="・通報一覧リンクをクリック" style="text;strokeColor=none;fillColor=none;align=left;verticalAlign=top;spacingLeft=4;spacingRight=4;overflow=hidden;rotatable=0;points=[[0,0.5],[1,0.5]];portConstraint=eastwest;whiteSpace=wrap;html=1;rounded=1;labelBackgroundColor=none;" vertex="1" parent="NGdV3juf8NLYTXSaNOSW-150">
          <mxGeometry y="52" width="220" height="22" as="geometry" />
        </mxCell>
        <mxCell id="NGdV3juf8NLYTXSaNOSW-163" value="・ユーザ一覧リンクをクリック" style="text;strokeColor=none;fillColor=none;align=left;verticalAlign=top;spacingLeft=4;spacingRight=4;overflow=hidden;rotatable=0;points=[[0,0.5],[1,0.5]];portConstraint=eastwest;whiteSpace=wrap;html=1;rounded=1;labelBackgroundColor=none;" vertex="1" parent="NGdV3juf8NLYTXSaNOSW-150">
          <mxGeometry y="74" width="220" height="22" as="geometry" />
        </mxCell>
        <mxCell id="NGdV3juf8NLYTXSaNOSW-155" value="通報一覧画面（管理者トップページ）" style="swimlane;fontStyle=0;childLayout=stackLayout;horizontal=1;startSize=26;fillColor=none;horizontalStack=0;resizeParent=1;resizeParentMax=0;resizeLast=0;collapsible=1;marginBottom=0;html=1;rounded=1;labelBackgroundColor=none;" vertex="1" parent="WIyWlLk6GJQsqaUBKTNV-1">
          <mxGeometry x="650" y="70" width="270" height="78" as="geometry" />
        </mxCell>
        <mxCell id="NGdV3juf8NLYTXSaNOSW-156" value="・全通報一覧" style="text;strokeColor=none;fillColor=none;align=left;verticalAlign=top;spacingLeft=4;spacingRight=4;overflow=hidden;rotatable=0;points=[[0,0.5],[1,0.5]];portConstraint=eastwest;whiteSpace=wrap;html=1;rounded=1;labelBackgroundColor=none;" vertex="1" parent="NGdV3juf8NLYTXSaNOSW-155">
          <mxGeometry y="26" width="270" height="26" as="geometry" />
        </mxCell>
        <mxCell id="NGdV3juf8NLYTXSaNOSW-158" value="Item 3" style="text;strokeColor=none;fillColor=none;align=left;verticalAlign=top;spacingLeft=4;spacingRight=4;overflow=hidden;rotatable=0;points=[[0,0.5],[1,0.5]];portConstraint=eastwest;whiteSpace=wrap;html=1;rounded=1;labelBackgroundColor=none;" vertex="1" parent="NGdV3juf8NLYTXSaNOSW-155">
          <mxGeometry y="52" width="270" height="26" as="geometry" />
        </mxCell>
        <mxCell id="NGdV3juf8NLYTXSaNOSW-161" value="" style="rounded=1;whiteSpace=wrap;html=1;labelBackgroundColor=none;" vertex="1" parent="WIyWlLk6GJQsqaUBKTNV-1">
          <mxGeometry x="1440" y="-10" width="120" height="60" as="geometry" />
        </mxCell>
      </root>
    </mxGraphModel>
  </diagram>
</mxfile>
